<svg width="372" height="138" viewBox="0 0 372 138" fill="none" xmlns="http://www.w3.org/2000/svg">
<path d="M159.92 29.92H180.14V37.48H159.92V29.92ZM160.64 47.2H183.5V55H150.98V13H182.72V20.8H160.64V47.2ZM203.248 55L185.128 13H195.628L211.468 50.2H205.288L221.368 13H231.028L212.848 55H203.248ZM243.475 29.92H263.695V37.48H243.475V29.92ZM244.195 47.2H267.055V55H234.535V13H266.275V20.8H244.195V47.2ZM274.789 55V13H282.829L307.609 43.24H303.709V13H313.309V55H305.329L280.489 24.76H284.389V55H274.789ZM331.946 55V20.92H318.506V13H355.106V20.92H341.666V55H331.946ZM152.156 115V77.2H155.45L172.73 106.684H171.002L188.12 77.2H191.414V115H187.58V83.194H188.498L172.73 110.194H170.84L154.964 83.194H155.99V115H152.156ZM220.686 115V108.736L220.524 107.71V97.234C220.524 94.822 219.84 92.968 218.472 91.672C217.14 90.376 215.142 89.728 212.478 89.728C210.642 89.728 208.896 90.034 207.24 90.646C205.584 91.258 204.18 92.068 203.028 93.076L201.3 90.214C202.74 88.99 204.468 88.054 206.484 87.406C208.5 86.722 210.624 86.38 212.856 86.38C216.528 86.38 219.354 87.298 221.334 89.134C223.35 90.934 224.358 93.688 224.358 97.396V115H220.686ZM210.912 115.27C208.788 115.27 206.934 114.928 205.35 114.244C203.802 113.524 202.614 112.552 201.786 111.328C200.958 110.068 200.544 108.628 200.544 107.008C200.544 105.532 200.886 104.2 201.57 103.012C202.29 101.788 203.442 100.816 205.026 100.096C206.646 99.34 208.806 98.962 211.506 98.962H221.28V101.824H211.614C208.878 101.824 206.97 102.31 205.89 103.282C204.846 104.254 204.324 105.46 204.324 106.9C204.324 108.52 204.954 109.816 206.214 110.788C207.474 111.76 209.238 112.246 211.506 112.246C213.666 112.246 215.52 111.76 217.068 110.788C218.652 109.78 219.804 108.34 220.524 106.468L221.388 109.114C220.668 110.986 219.408 112.48 217.608 113.596C215.844 114.712 213.612 115.27 210.912 115.27ZM242.386 115.27C240.046 115.27 237.832 114.946 235.744 114.298C233.656 113.614 232.018 112.768 230.83 111.76L232.558 108.736C233.71 109.6 235.186 110.356 236.986 111.004C238.786 111.616 240.676 111.922 242.656 111.922C245.356 111.922 247.3 111.508 248.488 110.68C249.676 109.816 250.27 108.682 250.27 107.278C250.27 106.234 249.928 105.424 249.244 104.848C248.596 104.236 247.732 103.786 246.652 103.498C245.572 103.174 244.366 102.904 243.034 102.688C241.702 102.472 240.37 102.22 239.038 101.932C237.742 101.644 236.554 101.23 235.474 100.69C234.394 100.114 233.512 99.34 232.828 98.368C232.18 97.396 231.856 96.1 231.856 94.48C231.856 92.932 232.288 91.546 233.152 90.322C234.016 89.098 235.276 88.144 236.932 87.46C238.624 86.74 240.676 86.38 243.088 86.38C244.924 86.38 246.76 86.632 248.596 87.136C250.432 87.604 251.944 88.234 253.132 89.026L251.458 92.104C250.198 91.24 248.848 90.628 247.408 90.268C245.968 89.872 244.528 89.674 243.088 89.674C240.532 89.674 238.642 90.124 237.418 91.024C236.23 91.888 235.636 93.004 235.636 94.372C235.636 95.452 235.96 96.298 236.608 96.91C237.292 97.522 238.174 98.008 239.254 98.368C240.37 98.692 241.576 98.962 242.872 99.178C244.204 99.394 245.518 99.664 246.814 99.988C248.146 100.276 249.352 100.69 250.432 101.23C251.548 101.734 252.43 102.472 253.078 103.444C253.762 104.38 254.104 105.622 254.104 107.17C254.104 108.826 253.636 110.266 252.7 111.49C251.8 112.678 250.468 113.614 248.704 114.298C246.976 114.946 244.87 115.27 242.386 115.27ZM270.103 115.27C267.439 115.27 265.387 114.55 263.947 113.11C262.507 111.67 261.787 109.636 261.787 107.008V80.386H265.621V106.792C265.621 108.448 266.035 109.726 266.863 110.626C267.727 111.526 268.951 111.976 270.535 111.976C272.227 111.976 273.631 111.49 274.747 110.518L276.097 113.272C275.341 113.956 274.423 114.46 273.343 114.784C272.299 115.108 271.219 115.27 270.103 115.27ZM256.711 89.836V86.65H274.261V89.836H256.711ZM294.117 115.27C291.165 115.27 288.573 114.658 286.341 113.434C284.109 112.174 282.363 110.464 281.103 108.304C279.843 106.108 279.213 103.606 279.213 100.798C279.213 97.99 279.807 95.506 280.995 93.346C282.219 91.186 283.875 89.494 285.963 88.27C288.087 87.01 290.463 86.38 293.091 86.38C295.755 86.38 298.113 86.992 300.165 88.216C302.253 89.404 303.891 91.096 305.079 93.292C306.267 95.452 306.861 97.954 306.861 100.798C306.861 100.978 306.843 101.176 306.807 101.392C306.807 101.572 306.807 101.77 306.807 101.986H282.129V99.124H304.755L303.243 100.258C303.243 98.206 302.793 96.388 301.893 94.804C301.029 93.184 299.841 91.924 298.329 91.024C296.817 90.124 295.071 89.674 293.091 89.674C291.147 89.674 289.401 90.124 287.853 91.024C286.305 91.924 285.099 93.184 284.235 94.804C283.371 96.424 282.939 98.278 282.939 100.366V100.96C282.939 103.12 283.407 105.028 284.343 106.684C285.315 108.304 286.647 109.582 288.339 110.518C290.067 111.418 292.029 111.868 294.225 111.868C295.953 111.868 297.555 111.562 299.031 110.95C300.543 110.338 301.839 109.402 302.919 108.142L305.079 110.626C303.819 112.138 302.235 113.29 300.327 114.082C298.455 114.874 296.385 115.27 294.117 115.27ZM314.664 115V86.65H318.336V94.372L317.958 93.022C318.75 90.862 320.082 89.224 321.954 88.108C323.826 86.956 326.148 86.38 328.92 86.38V90.106C328.776 90.106 328.632 90.106 328.488 90.106C328.344 90.07 328.2 90.052 328.056 90.052C325.068 90.052 322.728 90.97 321.036 92.806C319.344 94.606 318.498 97.18 318.498 100.528V115H314.664ZM343.847 115.27C341.507 115.27 339.293 114.946 337.205 114.298C335.117 113.614 333.479 112.768 332.291 111.76L334.019 108.736C335.171 109.6 336.647 110.356 338.447 111.004C340.247 111.616 342.137 111.922 344.117 111.922C346.817 111.922 348.761 111.508 349.949 110.68C351.137 109.816 351.731 108.682 351.731 107.278C351.731 106.234 351.389 105.424 350.705 104.848C350.057 104.236 349.193 103.786 348.113 103.498C347.033 103.174 345.827 102.904 344.495 102.688C343.163 102.472 341.831 102.22 340.499 101.932C339.203 101.644 338.015 101.23 336.935 100.69C335.855 100.114 334.973 99.34 334.289 98.368C333.641 97.396 333.317 96.1 333.317 94.48C333.317 92.932 333.749 91.546 334.613 90.322C335.477 89.098 336.737 88.144 338.393 87.46C340.085 86.74 342.137 86.38 344.549 86.38C346.385 86.38 348.221 86.632 350.057 87.136C351.893 87.604 353.405 88.234 354.593 89.026L352.919 92.104C351.659 91.24 350.309 90.628 348.869 90.268C347.429 89.872 345.989 89.674 344.549 89.674C341.993 89.674 340.103 90.124 338.879 91.024C337.691 91.888 337.097 93.004 337.097 94.372C337.097 95.452 337.421 96.298 338.069 96.91C338.753 97.522 339.635 98.008 340.715 98.368C341.831 98.692 343.037 98.962 344.333 99.178C345.665 99.394 346.979 99.664 348.275 99.988C349.607 100.276 350.813 100.69 351.893 101.23C353.009 101.734 353.891 102.472 354.539 103.444C355.223 104.38 355.565 105.622 355.565 107.17C355.565 108.826 355.097 110.266 354.161 111.49C353.261 112.678 351.929 113.614 350.165 114.298C348.437 114.946 346.331 115.27 343.847 115.27Z" fill="white"/>
<g clip-path="url(#clip0_2_33)">
<path fill-rule="evenodd" clip-rule="evenodd" d="M87.7773 0H37.1864C16.649 0 0 16.6833 0 37.2715V86.0814C0 105.513 15.7208 121.258 35.1042 121.258H86.3641L78.0103 138L95.9471 125.875C101.081 122.406 105.881 118.443 110.271 114.06L111.325 113.004C117.521 106.812 121 98.3991 121 89.6258V33.2913C121 14.9069 106.132 0 87.7773 0Z" fill="url(#paint0_linear_2_33)"/>
<path d="M22.8286 86.3495L22.77 34.9923C22.77 26.9984 29.2925 20.4708 37.2616 20.4708H86.1299C92.8112 20.4708 98.5393 25.0795 100.162 31.3556C100.463 32.5036 100.563 33.6935 100.571 34.8834L100.63 53.4018L56.0597 79.1851V63.9095L87.4344 45.7682V33.6851H35.9738V86.3411H102.57L93.2544 99.5051H35.9655C29.0249 98.8851 23.4557 93.3044 22.8286 86.3411V86.3495Z" fill="white"/>
</g>
<defs>
<linearGradient id="paint0_linear_2_33" x1="138.669" y1="-29.9563" x2="-1.74997" y2="135.762" gradientUnits="userSpaceOnUse">
<stop stop-color="#D43D8A"/>
<stop offset="0.48" stop-color="#9F2EB4"/>
<stop offset="1" stop-color="#6A1FDE"/>
</linearGradient>
<clipPath id="clip0_2_33">
<rect width="121" height="138" fill="white"/>
</clipPath>
</defs>
</svg>
