<svg width="17" height="17" viewBox="0 0 17 17" fill="none" xmlns="http://www.w3.org/2000/svg">
<path d="M8.89681 12.5502L9.36915 13.4316L8.89681 12.5502ZM8.10188 12.5502L7.62955 13.4316H7.62955L8.10188 12.5502ZM12.4577 6.375C12.4577 7.74138 11.7872 8.89247 10.8967 9.82137C10.0054 10.751 8.96669 11.3782 8.42447 11.6688L9.36915 13.4316C10.0036 13.0916 11.2453 12.3477 12.3403 11.2055C13.4361 10.0626 14.4577 8.44135 14.4577 6.375H12.4577ZM8.49935 2.41667C10.6855 2.41667 12.4577 4.18888 12.4577 6.375H14.4577C14.4577 3.08431 11.79 0.416672 8.49935 0.416672V2.41667ZM4.54102 6.375C4.54102 4.18888 6.31322 2.41667 8.49935 2.41667V0.416672C5.20865 0.416672 2.54102 3.08431 2.54102 6.375H4.54102ZM8.57422 11.6688C8.03201 11.3782 6.99327 10.751 6.10205 9.82137C5.21149 8.89247 4.54102 7.74138 4.54102 6.375H2.54102C2.54102 8.44135 3.56264 10.0626 4.65835 11.2055C5.7534 12.3477 6.99509 13.0916 7.62955 13.4316L8.57422 11.6688ZM8.42447 11.6688C8.44286 11.659 8.46898 11.6511 8.49935 11.6511C8.52972 11.6511 8.55584 11.659 8.57422 11.6688L7.62955 13.4316C8.17566 13.7243 8.82303 13.7243 9.36915 13.4316L8.42447 11.6688ZM9.62435 6.37501C9.62435 6.99633 9.12067 7.50001 8.49935 7.50001V9.50001C10.2252 9.50001 11.6243 8.10089 11.6243 6.37501H9.62435ZM8.49935 5.25001C9.12067 5.25001 9.62435 5.75368 9.62435 6.37501H11.6243C11.6243 4.64912 10.2252 3.25001 8.49935 3.25001V5.25001ZM7.37435 6.37501C7.37435 5.75368 7.87803 5.25001 8.49935 5.25001V3.25001C6.77346 3.25001 5.37435 4.64912 5.37435 6.37501H7.37435ZM8.49935 7.50001C7.87803 7.50001 7.37435 6.99633 7.37435 6.37501H5.37435C5.37435 8.10089 6.77346 9.50001 8.49935 9.50001V7.50001Z" fill="#3C3C3C"/>
<path d="M14.0209 12.3958C14.5804 12.7189 14.875 13.0853 14.875 13.4583C14.875 13.8313 14.5804 14.1978 14.0209 14.5208C13.4614 14.8439 12.6566 15.1121 11.6875 15.2986C10.7184 15.4851 9.61905 15.5833 8.5 15.5833C7.38095 15.5833 6.28162 15.4851 5.3125 15.2986C4.34338 15.1121 3.53861 14.8439 2.97909 14.5208C2.41957 14.1978 2.125 13.8313 2.125 13.4583C2.125 13.0853 2.41956 12.7189 2.97909 12.3958" stroke="#3C3C3C" stroke-width="2" stroke-linecap="round"/>
</svg>
