<svg width="26" height="26" viewBox="0 0 26 26" fill="none" xmlns="http://www.w3.org/2000/svg">
<path d="M6.5 14.0833V5.91667C6.5 5.68097 6.5 5.56312 6.57322 5.4899C6.64645 5.41667 6.7643 5.41667 7 5.41667H11.2986C11.5993 5.41667 11.7497 5.41667 11.8705 5.49135C11.9913 5.56602 12.0586 5.7005 12.1931 5.96946L12.7236 7.03055C12.8581 7.29951 12.9253 7.43399 13.0462 7.50866C13.167 7.58334 13.3173 7.58334 13.618 7.58334H19C19.2357 7.58334 19.3536 7.58334 19.4268 7.65656C19.5 7.72979 19.5 7.84764 19.5 8.08334V15.75C19.5 15.9857 19.5 16.1036 19.4268 16.1768C19.3536 16.25 19.2357 16.25 19 16.25H13.618C13.3173 16.25 13.167 16.25 13.0462 16.1753C12.9253 16.1007 12.8581 15.9662 12.7236 15.6972L12.1931 14.6361C12.0586 14.3672 11.9913 14.2327 11.8705 14.158C11.7497 14.0833 11.5993 14.0833 11.2986 14.0833H6.5ZM6.5 14.0833V20.5833" stroke="#3C3C3C" stroke-width="2" stroke-linecap="round"/>
</svg>
