<svg width="14" height="17" viewBox="0 0 14 17" fill="none" xmlns="http://www.w3.org/2000/svg">
<path d="M6.83333 8.5L11.792 11.8753C12.3392 12.2477 12.6667 12.8667 12.6667 13.5286V15.5C12.6667 15.7761 12.4428 16 12.1667 16H1.5C1.22386 16 1 15.7761 1 15.5V13.5286C1 12.8667 1.32746 12.2477 1.87462 11.8753L6.83333 8.5ZM6.83333 8.5L11.792 5.12474C12.3392 4.75231 12.6667 4.13329 12.6667 3.47141V1.5C12.6667 1.22386 12.4428 1 12.1667 1H1.5C1.22386 1 1 1.22386 1 1.5V3.47141C1 4.13329 1.32746 4.75231 1.87462 5.12474L6.83333 8.5Z" stroke="#3C3C3C" stroke-width="2" stroke-linecap="round" stroke-linejoin="round"/>
<path d="M10.1667 14.1938V15.85C10.1667 15.9328 10.0995 16 10.0167 16H3.65C3.56716 16 3.5 15.9328 3.5 15.85V14.1938C3.5 14.0214 3.58881 13.8612 3.735 13.7698L6.40933 12.0983C6.66875 11.9362 6.99792 11.9362 7.25733 12.0983L9.93167 13.7698C10.0779 13.8612 10.1667 14.0214 10.1667 14.1938Z" fill="#3C3C3C"/>
</svg>
