<svg width="21" height="21" viewBox="0 0 21 21" fill="none" xmlns="http://www.w3.org/2000/svg">
<path fill-rule="evenodd" clip-rule="evenodd" d="M0.875 5.6875C0.875 5.20425 1.26675 4.8125 1.75 4.8125H19.25C19.7332 4.8125 20.125 5.20425 20.125 5.6875V16.1875C20.125 16.6707 19.7332 17.0625 19.25 17.0625H1.75C1.26675 17.0625 0.875 16.6707 0.875 16.1875V5.6875ZM2.625 9.97498V11.9C4.33924 12.248 5.68951 13.5983 6.03748 15.3125H14.9625C15.3105 13.5983 16.6608 12.248 18.375 11.9V9.97499C16.6608 9.62702 15.3105 8.27675 14.9625 6.5625H6.03748C5.68951 8.27675 4.33924 9.62701 2.625 9.97498ZM4.22563 6.5625H2.625V8.16313C3.37086 7.89951 3.96201 7.30836 4.22563 6.5625ZM16.7744 6.5625C17.038 7.30837 17.6291 7.89951 18.375 8.16314V6.5625H16.7744ZM18.375 13.7119C17.6291 13.9755 17.038 14.5666 16.7744 15.3125H18.375V13.7119ZM4.22563 15.3125C3.96201 14.5666 3.37086 13.9755 2.625 13.7119V15.3125H4.22563ZM7.4375 10.9375C7.4375 9.16066 8.66604 7.4375 10.5 7.4375C12.334 7.4375 13.5625 9.16066 13.5625 10.9375C13.5625 12.7143 12.334 14.4375 10.5 14.4375C8.66604 14.4375 7.4375 12.7143 7.4375 10.9375ZM10.5 9.1875C9.91774 9.1875 9.1875 9.81486 9.1875 10.9375C9.1875 12.0601 9.91774 12.6875 10.5 12.6875C11.0823 12.6875 11.8125 12.0601 11.8125 10.9375C11.8125 9.81486 11.0823 9.1875 10.5 9.1875Z" fill="#3C3C3C"/>
</svg>
