<svg width="373" height="138" viewBox="0 0 373 138" fill="none" xmlns="http://www.w3.org/2000/svg">
<path d="M160.92 29.92H181.14V37.48H160.92V29.92ZM161.64 47.2H184.5V55H151.98V13H183.72V20.8H161.64V47.2ZM204.248 55L186.128 13H196.628L212.468 50.2H206.288L222.368 13H232.028L213.848 55H204.248ZM244.475 29.92H264.695V37.48H244.475V29.92ZM245.195 47.2H268.055V55H235.535V13H267.275V20.8H245.195V47.2ZM275.789 55V13H283.829L308.609 43.24H304.709V13H314.309V55H306.329L281.489 24.76H285.389V55H275.789ZM332.946 55V20.92H319.506V13H356.106V20.92H342.666V55H332.946ZM153.156 115V77.2H156.45L173.73 106.684H172.002L189.12 77.2H192.414V115H188.58V83.194H189.498L173.73 110.194H171.84L155.964 83.194H156.99V115H153.156ZM221.686 115V108.736L221.524 107.71V97.234C221.524 94.822 220.84 92.968 219.472 91.672C218.14 90.376 216.142 89.728 213.478 89.728C211.642 89.728 209.896 90.034 208.24 90.646C206.584 91.258 205.18 92.068 204.028 93.076L202.3 90.214C203.74 88.99 205.468 88.054 207.484 87.406C209.5 86.722 211.624 86.38 213.856 86.38C217.528 86.38 220.354 87.298 222.334 89.134C224.35 90.934 225.358 93.688 225.358 97.396V115H221.686ZM211.912 115.27C209.788 115.27 207.934 114.928 206.35 114.244C204.802 113.524 203.614 112.552 202.786 111.328C201.958 110.068 201.544 108.628 201.544 107.008C201.544 105.532 201.886 104.2 202.57 103.012C203.29 101.788 204.442 100.816 206.026 100.096C207.646 99.34 209.806 98.962 212.506 98.962H222.28V101.824H212.614C209.878 101.824 207.97 102.31 206.89 103.282C205.846 104.254 205.324 105.46 205.324 106.9C205.324 108.52 205.954 109.816 207.214 110.788C208.474 111.76 210.238 112.246 212.506 112.246C214.666 112.246 216.52 111.76 218.068 110.788C219.652 109.78 220.804 108.34 221.524 106.468L222.388 109.114C221.668 110.986 220.408 112.48 218.608 113.596C216.844 114.712 214.612 115.27 211.912 115.27ZM243.386 115.27C241.046 115.27 238.832 114.946 236.744 114.298C234.656 113.614 233.018 112.768 231.83 111.76L233.558 108.736C234.71 109.6 236.186 110.356 237.986 111.004C239.786 111.616 241.676 111.922 243.656 111.922C246.356 111.922 248.3 111.508 249.488 110.68C250.676 109.816 251.27 108.682 251.27 107.278C251.27 106.234 250.928 105.424 250.244 104.848C249.596 104.236 248.732 103.786 247.652 103.498C246.572 103.174 245.366 102.904 244.034 102.688C242.702 102.472 241.37 102.22 240.038 101.932C238.742 101.644 237.554 101.23 236.474 100.69C235.394 100.114 234.512 99.34 233.828 98.368C233.18 97.396 232.856 96.1 232.856 94.48C232.856 92.932 233.288 91.546 234.152 90.322C235.016 89.098 236.276 88.144 237.932 87.46C239.624 86.74 241.676 86.38 244.088 86.38C245.924 86.38 247.76 86.632 249.596 87.136C251.432 87.604 252.944 88.234 254.132 89.026L252.458 92.104C251.198 91.24 249.848 90.628 248.408 90.268C246.968 89.872 245.528 89.674 244.088 89.674C241.532 89.674 239.642 90.124 238.418 91.024C237.23 91.888 236.636 93.004 236.636 94.372C236.636 95.452 236.96 96.298 237.608 96.91C238.292 97.522 239.174 98.008 240.254 98.368C241.37 98.692 242.576 98.962 243.872 99.178C245.204 99.394 246.518 99.664 247.814 99.988C249.146 100.276 250.352 100.69 251.432 101.23C252.548 101.734 253.43 102.472 254.078 103.444C254.762 104.38 255.104 105.622 255.104 107.17C255.104 108.826 254.636 110.266 253.7 111.49C252.8 112.678 251.468 113.614 249.704 114.298C247.976 114.946 245.87 115.27 243.386 115.27ZM271.103 115.27C268.439 115.27 266.387 114.55 264.947 113.11C263.507 111.67 262.787 109.636 262.787 107.008V80.386H266.621V106.792C266.621 108.448 267.035 109.726 267.863 110.626C268.727 111.526 269.951 111.976 271.535 111.976C273.227 111.976 274.631 111.49 275.747 110.518L277.097 113.272C276.341 113.956 275.423 114.46 274.343 114.784C273.299 115.108 272.219 115.27 271.103 115.27ZM257.711 89.836V86.65H275.261V89.836H257.711ZM295.117 115.27C292.165 115.27 289.573 114.658 287.341 113.434C285.109 112.174 283.363 110.464 282.103 108.304C280.843 106.108 280.213 103.606 280.213 100.798C280.213 97.99 280.807 95.506 281.995 93.346C283.219 91.186 284.875 89.494 286.963 88.27C289.087 87.01 291.463 86.38 294.091 86.38C296.755 86.38 299.113 86.992 301.165 88.216C303.253 89.404 304.891 91.096 306.079 93.292C307.267 95.452 307.861 97.954 307.861 100.798C307.861 100.978 307.843 101.176 307.807 101.392C307.807 101.572 307.807 101.77 307.807 101.986H283.129V99.124H305.755L304.243 100.258C304.243 98.206 303.793 96.388 302.893 94.804C302.029 93.184 300.841 91.924 299.329 91.024C297.817 90.124 296.071 89.674 294.091 89.674C292.147 89.674 290.401 90.124 288.853 91.024C287.305 91.924 286.099 93.184 285.235 94.804C284.371 96.424 283.939 98.278 283.939 100.366V100.96C283.939 103.12 284.407 105.028 285.343 106.684C286.315 108.304 287.647 109.582 289.339 110.518C291.067 111.418 293.029 111.868 295.225 111.868C296.953 111.868 298.555 111.562 300.031 110.95C301.543 110.338 302.839 109.402 303.919 108.142L306.079 110.626C304.819 112.138 303.235 113.29 301.327 114.082C299.455 114.874 297.385 115.27 295.117 115.27ZM315.664 115V86.65H319.336V94.372L318.958 93.022C319.75 90.862 321.082 89.224 322.954 88.108C324.826 86.956 327.148 86.38 329.92 86.38V90.106C329.776 90.106 329.632 90.106 329.488 90.106C329.344 90.07 329.2 90.052 329.056 90.052C326.068 90.052 323.728 90.97 322.036 92.806C320.344 94.606 319.498 97.18 319.498 100.528V115H315.664ZM344.847 115.27C342.507 115.27 340.293 114.946 338.205 114.298C336.117 113.614 334.479 112.768 333.291 111.76L335.019 108.736C336.171 109.6 337.647 110.356 339.447 111.004C341.247 111.616 343.137 111.922 345.117 111.922C347.817 111.922 349.761 111.508 350.949 110.68C352.137 109.816 352.731 108.682 352.731 107.278C352.731 106.234 352.389 105.424 351.705 104.848C351.057 104.236 350.193 103.786 349.113 103.498C348.033 103.174 346.827 102.904 345.495 102.688C344.163 102.472 342.831 102.22 341.499 101.932C340.203 101.644 339.015 101.23 337.935 100.69C336.855 100.114 335.973 99.34 335.289 98.368C334.641 97.396 334.317 96.1 334.317 94.48C334.317 92.932 334.749 91.546 335.613 90.322C336.477 89.098 337.737 88.144 339.393 87.46C341.085 86.74 343.137 86.38 345.549 86.38C347.385 86.38 349.221 86.632 351.057 87.136C352.893 87.604 354.405 88.234 355.593 89.026L353.919 92.104C352.659 91.24 351.309 90.628 349.869 90.268C348.429 89.872 346.989 89.674 345.549 89.674C342.993 89.674 341.103 90.124 339.879 91.024C338.691 91.888 338.097 93.004 338.097 94.372C338.097 95.452 338.421 96.298 339.069 96.91C339.753 97.522 340.635 98.008 341.715 98.368C342.831 98.692 344.037 98.962 345.333 99.178C346.665 99.394 347.979 99.664 349.275 99.988C350.607 100.276 351.813 100.69 352.893 101.23C354.009 101.734 354.891 102.472 355.539 103.444C356.223 104.38 356.565 105.622 356.565 107.17C356.565 108.826 356.097 110.266 355.161 111.49C354.261 112.678 352.929 113.614 351.165 114.298C349.437 114.946 347.331 115.27 344.847 115.27Z" fill="#1D1D1D"/>
<g clip-path="url(#clip0_2_145)">
<path fill-rule="evenodd" clip-rule="evenodd" d="M88.5027 0H37.4937C16.7866 0 0 16.6833 0 37.2715V86.0814C0 105.513 15.8507 121.258 35.3943 121.258H87.0778L78.655 138L96.74 125.875C101.917 122.406 106.756 118.443 111.183 114.06L112.245 113.004C118.493 106.812 122 98.3991 122 89.6258V33.2913C122 14.9069 107.009 0 88.5027 0Z" fill="url(#paint0_linear_2_145)"/>
<path d="M23.0173 86.3494L22.9583 34.9922C22.9583 26.9982 29.5346 20.4707 37.5696 20.4707H86.8417C93.5783 20.4707 99.3537 25.0794 100.989 31.3555C101.293 32.5035 101.394 33.6934 101.402 34.8832L101.462 53.4017L56.523 79.185V63.9094L88.157 45.768V33.685H36.2712V86.341H103.418L94.0251 99.505H36.2627C29.2648 98.8849 23.6496 93.3043 23.0173 86.341V86.3494Z" fill="white"/>
</g>
<defs>
<linearGradient id="paint0_linear_2_145" x1="136.367" y1="-12.3261" x2="30.001" y2="94.6896" gradientUnits="userSpaceOnUse">
<stop stop-color="#302A51"/>
<stop offset="1" stop-color="#4B34D4"/>
</linearGradient>
<clipPath id="clip0_2_145">
<rect width="122" height="138" fill="white"/>
</clipPath>
</defs>
</svg>
