<svg width="55" height="55" viewBox="0 0 55 55" fill="none" xmlns="http://www.w3.org/2000/svg">
<path d="M50.9597 13.1523L53.6277 10.4874C53.8448 10.2701 53.9953 9.9954 54.0616 9.69549C54.1278 9.39558 54.1069 9.083 54.0014 8.79456C53.8959 8.50612 53.7102 8.25383 53.4661 8.0674C53.222 7.88096 52.9298 7.76815 52.6237 7.74225L47.6748 7.32431L47.2569 2.37537C47.231 2.06934 47.1182 1.77708 46.9317 1.53301C46.7453 1.28894 46.493 1.10323 46.2046 0.997733C45.9161 0.892242 45.6035 0.871367 45.3036 0.937567C45.0037 1.00377 44.729 1.15429 44.5117 1.3714L41.8437 4.03787C36.101 0.526677 29.2699 -0.75631 22.6445 0.431963C16.0192 1.62025 10.0597 5.19723 5.8952 10.4853C1.73065 15.7734 -0.349755 22.4053 0.0481116 29.1246C0.445978 35.8439 3.29448 42.1839 8.05398 46.9436C12.8136 51.7042 19.154 54.5536 25.874 54.9518C32.594 55.3501 39.2266 53.2695 44.5152 49.1044C49.8037 44.9393 53.3807 38.979 54.5685 32.3529C55.7563 25.7267 54.4722 18.895 50.9597 13.1523ZM44.5719 8.94517C44.604 9.3242 44.7692 9.67965 45.0382 9.94863C45.3071 10.2176 45.6626 10.3828 46.0416 10.4149L48.8885 10.6555L45.033 14.511L40.8305 14.1563L40.4758 9.95378L44.3313 6.09826L44.5719 8.94517ZM32.9776 27.4995C32.9784 28.698 32.5865 29.8637 31.8619 30.8183C31.1372 31.7729 30.1197 32.4638 28.9651 32.7851C27.8105 33.1065 26.5824 33.0406 25.4687 32.5977C24.3551 32.1547 23.4173 31.359 22.7988 30.3324C22.1804 29.3058 21.9153 28.1049 22.0443 26.9133C22.1733 25.7218 22.6892 24.6053 23.513 23.7348C24.3368 22.8643 25.4232 22.2878 26.6058 22.0934C27.7884 21.899 29.0022 22.0975 30.0613 22.6585L26.36 26.3598C26.202 26.5074 26.0753 26.6853 25.9874 26.8829C25.8996 27.0805 25.8525 27.2938 25.8488 27.51C25.8451 27.7262 25.885 27.941 25.9661 28.1415C26.0471 28.3419 26.1677 28.5241 26.3206 28.677C26.4735 28.8299 26.6556 28.9505 26.8561 29.0315C27.0566 29.1126 27.2713 29.1524 27.4876 29.1488C27.7038 29.1451 27.917 29.0979 28.1147 29.0101C28.3123 28.9223 28.4902 28.7956 28.6378 28.6376L32.3391 24.9363C32.759 25.7248 32.9783 26.6061 32.9776 27.4995ZM32.4039 20.3174C30.612 19.0934 28.4278 18.5823 26.2789 18.8842C24.13 19.1862 22.1711 20.2793 20.7859 21.9497C19.4007 23.6201 18.6889 25.7474 18.7898 27.915C18.8907 30.0827 19.7972 32.1346 21.3316 33.6691C22.866 35.2035 24.918 36.1099 27.0856 36.2109C29.2533 36.3118 31.3806 35.6 33.051 34.2147C34.7213 32.8295 35.8145 30.8707 36.1164 28.7218C36.4183 26.5729 35.9073 24.3887 34.6833 22.5968L39.2837 17.9964C41.7212 21.0174 42.9072 24.8582 42.5975 28.7276C42.2878 32.597 40.5059 36.2002 37.6189 38.7951C34.7318 41.3899 30.9596 42.7787 27.0792 42.6754C23.1988 42.572 19.5058 40.9844 16.761 38.2396C14.0162 35.4948 12.4286 31.8018 12.3253 27.9214C12.2219 24.0411 13.6107 20.2688 16.2056 17.3818C18.8004 14.4948 22.4037 12.7129 26.273 12.4032C30.1424 12.0934 33.9832 13.2795 37.0043 15.717L32.4039 20.3174ZM44.6644 44.6658C42.4129 46.9328 39.7361 48.7331 36.7874 49.9634C33.8387 51.1937 30.6761 51.8298 27.481 51.8352C24.2859 51.8407 21.1212 51.2153 18.1683 49.995C15.2154 48.7748 12.5325 46.9836 10.2733 44.7242C8.01416 42.4649 6.22323 39.7818 5.00323 36.8288C3.78324 33.8758 3.15818 30.711 3.1639 27.5159C3.16962 24.3208 3.80601 21.1583 5.03657 18.2097C6.26714 15.2611 8.06766 12.5844 10.3349 10.3332C14.0941 6.57585 18.982 4.15543 24.249 3.44312C29.516 2.7308 34.8712 3.76593 39.4934 6.38974L37.6767 8.20646C37.3845 8.49846 37.2155 8.89153 37.2048 9.30451C37.2048 9.36311 37.2048 9.42171 37.2048 9.48186L37.4222 12.0527C33.6073 9.59926 29.02 8.64281 24.5424 9.36726C20.0649 10.0917 16.0132 12.446 13.1666 15.9772C10.32 19.5085 8.87935 23.9675 9.12176 28.4968C9.36417 33.0261 11.2725 37.3059 14.4798 40.5132C17.687 43.7205 21.9668 45.6288 26.4961 45.8712C31.0254 46.1136 35.4844 44.673 39.0157 41.8264C42.547 38.9797 44.9012 34.9281 45.6257 30.4505C46.3501 25.973 45.3937 21.3857 42.9402 17.5707L45.5111 17.7882C45.5558 17.7882 45.6021 17.7882 45.6468 17.7882H45.6699H45.7332L45.838 17.7805L45.9028 17.7712L46.0046 17.7512L46.0678 17.7357L46.165 17.7064L46.2267 17.6849L46.3207 17.6448L46.3793 17.617L46.4703 17.5661L46.5243 17.5337C46.5567 17.5121 46.5875 17.4905 46.6168 17.4674L46.66 17.435C46.7041 17.3998 46.7464 17.3622 46.7865 17.3224L48.6032 15.5057C51.228 20.1276 52.2641 25.4828 51.5526 30.7501C50.8411 36.0175 48.4213 40.9059 44.6644 44.6658Z" fill="#400198"/>
</svg>
