<svg width="32" height="32" viewBox="0 0 32 43" fill="none" xmlns="http://www.w3.org/2000/svg">
<path d="M22.3086 12.0576L22.2138 12.0146C19.971 11.0314 18.1306 9.30203 17.0002 7.11533C15.8697 4.92862 15.5176 2.417 16.0026 0C13.1063 1.03416 10.5662 2.88676 8.68553 5.33672C6.80485 7.78668 5.66294 10.7305 5.39607 13.817C5.36762 14.1644 5.34866 14.5134 5.33918 14.864C5.33918 14.9788 5.33918 15.0935 5.33918 15.213C5.3345 18.3971 6.2686 21.5107 8.0228 24.1582C7.29036 24.2558 6.54581 24.1985 5.83649 23.9902C5.12718 23.7818 4.46862 23.4269 3.90271 22.948C3.3368 22.4691 2.87591 21.8767 2.54937 21.2085C2.22283 20.5402 2.03778 19.8108 2.00598 19.0665C0.695938 21.4503 0.0058442 24.1298 3.69573e-05 26.8551C-0.00577029 29.5805 0.672899 32.2629 1.97277 34.6524C3.27264 37.0419 5.15138 39.0605 7.43384 40.5202C9.71629 41.9798 12.3281 42.833 15.0258 43C13.7531 42.4297 12.6676 41.5061 11.8961 40.3369C11.1245 39.1678 10.6987 37.8015 10.6685 36.3975C10.6685 36.3449 10.6685 36.2923 10.6685 36.2397C10.6676 34.7924 11.0881 33.3766 11.8778 32.168C12.6676 30.9595 13.7919 30.0113 15.1112 29.4412H15.1491C16.2243 28.9735 17.1403 28.1988 17.784 27.2124C18.4277 26.226 18.771 25.0712 18.7715 23.8905C19.8488 24.4674 20.7666 25.3058 21.4421 26.33C22.1176 27.3542 22.5294 28.5319 22.6405 29.7567C22.6405 29.9193 22.6405 30.0818 22.6642 30.2348C22.6642 30.2874 22.6642 30.34 22.6642 30.3926C22.6675 31.8525 22.24 33.2804 21.4362 34.4947L20.8435 35.3791L21.9103 35.5178C22.0518 35.5364 22.1943 35.546 22.337 35.5465C22.866 35.5481 23.3877 35.4223 23.8586 35.1795C24.3295 34.9366 24.7361 34.5838 25.0444 34.1504C25.3933 35.3573 25.431 36.634 25.1539 37.8597C24.8767 39.0854 24.294 40.2194 23.4608 41.1545C25.9834 39.8144 28.1052 37.819 29.6065 35.3746C31.1078 32.9303 31.9341 30.1259 32 27.2515C32 27.1368 32 27.022 32 26.9025C32.0027 23.7432 31.0858 20.6527 29.3631 18.0139C27.6404 15.3751 25.1875 13.3041 22.3086 12.0576ZM30.6677 27.2133C30.5874 30.8966 29.1469 34.4171 26.628 37.0859C26.6565 36.8055 26.6707 36.5218 26.6707 36.2349C26.6703 35.4082 26.5538 34.5857 26.3246 33.7919L25.5612 31.1384L23.9633 33.3807C23.7742 33.6463 23.5235 33.8613 23.2332 34.007C23.7437 32.8733 24.0072 31.6425 24.006 30.3974C24.006 30.3352 24.006 30.2731 24.006 30.2109C24.006 30.0245 24.006 29.8332 23.9776 29.642C23.856 28.1894 23.3747 26.7909 22.5778 25.5746C21.7808 24.3584 20.6938 23.3634 19.4164 22.6809L17.4582 21.6291V23.8666C17.4514 24.7853 17.1785 25.682 16.6731 26.4465C16.1677 27.2109 15.4518 27.8098 14.6133 28.1694L14.5801 28.2077C13.0217 28.8815 11.6936 30.0018 10.7606 31.4296C9.82754 32.8573 9.33063 34.5298 9.33142 36.2397C9.33142 36.3019 9.33142 36.364 9.33142 36.4262C9.35914 37.8948 9.75553 39.3324 10.4836 40.6047C7.12242 39.2214 4.38789 36.6327 2.80685 33.3374C1.22581 30.0421 0.910133 26.2734 1.92063 22.7574C2.53722 23.6242 3.35033 24.3298 4.2922 24.8155C5.23408 25.3012 6.27742 25.5528 7.3353 25.5495C7.6207 25.5486 7.90576 25.5294 8.18875 25.4921L10.3224 25.2148L9.12754 23.4267C7.5193 21 6.66277 18.146 6.66676 15.2274C6.66676 15.1222 6.66676 15.0122 6.66676 14.907C6.66676 14.5915 6.69047 14.2664 6.71892 13.9509C6.93004 11.4923 7.74663 9.12585 9.09458 7.06617C10.4425 5.00649 12.2792 3.31879 14.4379 2.15622C14.4413 4.51787 15.1299 6.82691 16.419 8.79869C17.708 10.7705 19.5411 12.3188 21.6922 13.2528H21.7207L21.7918 13.2815C24.4317 14.4235 26.6808 16.3223 28.2596 18.7422C29.8385 21.1621 30.6775 23.9963 30.6724 26.8929C30.6724 26.9981 30.6677 27.1081 30.6677 27.2133Z" fill="#1A3260"/>
</svg>
