<svg width="32" height="32" viewBox="0 0 38 34" fill="none" xmlns="http://www.w3.org/2000/svg">
<path d="M24.2326 13.2222C26.0689 13.2222 27.5576 14.7022 27.5576 16.5278V25.4981C27.5576 30.1935 23.7287 34 19.0057 34C14.2825 34 10.4537 30.1935 10.4537 25.4981V16.5278C10.4537 14.7022 11.9423 13.2222 13.7787 13.2222H24.2326ZM9.74943 13.2204C9.08548 14.019 8.65708 15.0182 8.57008 16.113L8.55367 16.5278V25.4981C8.55367 27.0972 8.91706 28.6121 9.56625 29.9653C8.94096 30.1334 8.28208 30.2222 7.60236 30.2222C3.4037 30.2222 0 26.8385 0 22.6644V16.5278C0 14.7934 1.34351 13.3711 3.05229 13.2332L3.325 13.2222L9.74943 13.2204ZM28.2619 13.2204L34.675 13.2222C36.5113 13.2222 38 14.7022 38 16.5278V22.6667C38 26.8394 34.5973 30.2222 30.4 30.2222C29.7228 30.2222 29.0662 30.1342 28.4413 29.9689C29.0124 28.7829 29.3622 27.4743 29.4407 26.0939L29.4576 25.4981V16.5278C29.4576 15.2711 29.0088 14.1189 28.2619 13.2204ZM19 0C22.1481 0 24.7 2.53706 24.7 5.66667C24.7 8.79627 22.1481 11.3333 19 11.3333C15.8519 11.3333 13.3 8.79627 13.3 5.66667C13.3 2.53706 15.8519 0 19 0ZM31.35 1.88889C33.9733 1.88889 36.1 4.0031 36.1 6.61111C36.1 9.21912 33.9733 11.3333 31.35 11.3333C28.7267 11.3333 26.6 9.21912 26.6 6.61111C26.6 4.0031 28.7267 1.88889 31.35 1.88889ZM6.65 1.88889C9.27335 1.88889 11.4 4.0031 11.4 6.61111C11.4 9.21912 9.27335 11.3333 6.65 11.3333C4.02665 11.3333 1.9 9.21912 1.9 6.61111C1.9 4.0031 4.02665 1.88889 6.65 1.88889Z" fill="#1A3260"/>
</svg>
