<svg width="32" height="32" viewBox="0 0 49 39" fill="none" xmlns="http://www.w3.org/2000/svg">
<path d="M0 30.1616V36.5618C0 37.9081 1.09714 39 2.45 39H9.8V24.3709L1.48531 27.9139C0.583789 28.3101 0 29.1863 0 30.1616ZM35.5633 18.7859L31.85 16.5763V7.81408C31.85 7.16781 31.5912 6.54699 31.1317 6.09059L25.3652 0.356356C24.8869 -0.118785 24.1164 -0.118785 23.6387 0.356356L17.8697 6.08678C17.4103 6.54394 17.15 7.16415 17.15 7.81408V16.5763L13.4367 18.7859C12.7017 19.2202 12.25 20.0202 12.25 20.8736V38.939L19.6 38.9394V31.6249C19.6 28.9314 21.7935 26.7462 24.5 26.7462C27.2065 26.7462 29.4 28.9322 29.4 31.6249V38.9394L36.75 38.939V20.8736C36.75 20.0202 36.2983 19.2202 35.5633 18.7859ZM47.5147 27.9139L39.2 24.3709V39H46.55C47.9029 39 49 37.9081 49 36.5618V30.1616C49 29.1863 48.4181 28.3101 47.5147 27.9139Z" fill="#1A3260"/>
</svg>
