<svg width="260" height="325" viewBox="0 0 260 325" fill="none" xmlns="http://www.w3.org/2000/svg">
<rect width="260" height="325" rx="15" fill="#F7F7F7"/>
<path fill-rule="evenodd" clip-rule="evenodd" d="M130.5 146.125C126.522 146.125 123.116 148.559 121.683 152.014C121.507 152.439 121.398 152.699 121.305 152.878C121.293 152.902 121.282 152.923 121.272 152.94L121.253 152.942C121.099 152.957 120.881 152.958 120.494 152.958H120.25C116.867 152.958 114.125 155.701 114.125 159.083C114.125 162.466 116.867 165.208 120.25 165.208H123.255L125.255 163.208H120.25C117.972 163.208 116.125 161.362 116.125 159.083C116.125 156.805 117.972 154.958 120.25 154.958H120.494L120.535 154.958H120.535C120.866 154.958 121.184 154.958 121.448 154.933C121.736 154.904 122.079 154.837 122.402 154.621C122.747 154.391 122.948 154.057 123.083 153.795C123.218 153.532 123.359 153.193 123.515 152.816L123.53 152.78C124.664 150.045 127.359 148.125 130.5 148.125C133.641 148.125 136.336 150.045 137.47 152.78L137.485 152.816L137.485 152.816C137.641 153.193 137.782 153.532 137.917 153.795C138.052 154.057 138.253 154.391 138.598 154.621C138.921 154.837 139.264 154.904 139.552 154.933C139.816 154.958 140.134 154.958 140.465 154.958H140.465L140.506 154.958H141.875C143.532 154.958 144.875 156.301 144.875 157.958V160.208C144.875 161.865 143.532 163.208 141.875 163.208L135.745 163.208L137.745 165.208H141.875C144.636 165.208 146.875 162.97 146.875 160.208V157.958C146.875 155.197 144.636 152.958 141.875 152.958H140.506C140.119 152.958 139.901 152.957 139.747 152.942L139.728 152.94C139.718 152.923 139.707 152.902 139.695 152.878C139.602 152.699 139.493 152.439 139.317 152.014C137.884 148.559 134.478 146.125 130.5 146.125Z" fill="#1A3260"/>
<path d="M130.499 162.5L129.792 161.793L130.499 161.086L131.206 161.793L130.499 162.5ZM131.499 177.875C131.499 178.427 131.052 178.875 130.499 178.875C129.947 178.875 129.499 178.427 129.499 177.875L131.499 177.875ZM122.959 168.626L129.792 161.793L131.206 163.207L124.373 170.04L122.959 168.626ZM131.206 161.793L138.04 168.626L136.626 170.04L129.792 163.207L131.206 161.793ZM131.499 162.5L131.499 177.875L129.499 177.875L129.499 162.5L131.499 162.5Z" fill="#1A3260"/>
</svg>
