<svg width="63" height="55" viewBox="0 0 63 55" fill="none" xmlns="http://www.w3.org/2000/svg">
<path d="M62.7371 43.583L50.4413 31.313C49.8975 30.7703 49.252 30.3398 48.5415 30.0462C47.8311 29.7525 47.0696 29.6013 46.3006 29.6013C45.5316 29.6013 44.7701 29.7525 44.0596 30.0462C43.3492 30.3398 42.7037 30.7703 42.1599 31.313L40.3882 33.081L34.2536 26.9681C33.7521 26.4665 33.1216 26.1127 32.4316 25.9456V0.920839C32.4316 0.676617 32.3344 0.4424 32.1614 0.26971C31.9883 0.0970188 31.7536 0 31.5089 0C31.2641 0 31.0294 0.0970188 30.8564 0.26971C30.6833 0.4424 30.5861 0.676617 30.5861 0.920839V1.96692H23.6173C23.1105 1.96847 22.625 2.16994 22.2665 2.52737C21.908 2.88481 21.7058 3.36921 21.7038 3.87489V5.90663H15.7198C15.5564 5.90655 15.3959 5.94976 15.2547 6.03186C15.1135 6.11395 14.9967 6.23199 14.9162 6.37389C14.8357 6.5158 14.7945 6.67649 14.7966 6.83954C14.7987 7.00258 14.8442 7.16213 14.9284 7.30189L17.6023 11.7499L14.9284 16.1979C14.8442 16.3377 14.7987 16.4972 14.7966 16.6603C14.7945 16.8233 14.8357 16.984 14.9162 17.1259C14.9967 17.2678 15.1135 17.3859 15.2547 17.468C15.3959 17.5501 15.5564 17.5933 15.7198 17.5932H24.5976C24.8424 17.5932 25.0771 17.4962 25.2501 17.3235C25.4232 17.1508 25.5204 16.9166 25.5204 16.6723C25.5204 16.4281 25.4232 16.1939 25.2501 16.0212C25.0771 15.8485 24.8424 15.7515 24.5976 15.7515H17.3513L19.4714 12.2243C19.5574 12.0812 19.6029 11.9175 19.6029 11.7506C19.6029 11.5838 19.5574 11.4201 19.4714 11.277L17.3513 7.74979H21.7038V12.7356C21.7038 12.9798 21.801 13.214 21.9741 13.3867C22.1471 13.5594 22.3818 13.6564 22.6266 13.6564H30.5816V25.947C29.8916 26.1141 29.2612 26.468 28.7597 26.9695L19.1747 36.5345L18.8794 36.2398C17.7805 35.1453 16.2913 34.5306 14.7387 34.5306C13.1861 34.5306 11.6969 35.1453 10.598 36.2398L0.27031 46.537C0.0972335 46.7097 0 46.944 0 47.1882C0 47.4325 0.0972335 47.6667 0.27031 47.8394C0.443387 48.0122 0.67813 48.1092 0.922897 48.1092C1.16767 48.1092 1.40241 48.0122 1.57548 47.8394L11.8988 37.5378C12.6513 36.7889 13.6707 36.3684 14.7335 36.3684C15.7963 36.3684 16.8158 36.7889 17.5683 37.5378L17.8636 37.8325L2.24431 53.4278C2.07124 53.6005 1.974 53.8348 1.974 54.079C1.974 54.3233 2.07124 54.5575 2.24431 54.7303C2.41739 54.903 2.65213 55 2.8969 55C3.14167 55 3.37641 54.903 3.54949 54.7303L16.7075 41.5998L18.1131 43.0025C18.6567 43.5435 19.3931 43.8474 20.1609 43.8474C20.9287 43.8474 21.6652 43.5435 22.2088 43.0025L25.5426 39.6756C25.5485 39.6697 25.5555 39.665 25.5632 39.6618C25.5709 39.6586 25.5792 39.657 25.5876 39.657C25.596 39.657 25.6042 39.6586 25.612 39.6618C25.6197 39.665 25.6267 39.6697 25.6326 39.6756L26.9924 41.0326C27.536 41.5737 28.2725 41.8775 29.0402 41.8775C29.808 41.8775 30.5445 41.5737 31.0881 41.0326L34.7688 37.3596C34.9502 37.1787 35.1961 37.0771 35.4524 37.0771C35.7088 37.0771 35.9547 37.1787 36.136 37.3596C36.2217 37.4451 36.3235 37.5129 36.4354 37.5592C36.5474 37.6055 36.6674 37.6293 36.7886 37.6293C36.9098 37.6293 37.0298 37.6055 37.1418 37.5592C37.2538 37.5129 37.3555 37.4451 37.4412 37.3596C37.5269 37.274 37.5949 37.1725 37.6413 37.0608C37.6876 36.949 37.7115 36.8293 37.7115 36.7083C37.7115 36.5874 37.6876 36.4676 37.6413 36.3559C37.5949 36.2442 37.5269 36.1426 37.4412 36.0571C36.9133 35.5315 36.1981 35.2363 35.4524 35.2363C34.7067 35.2363 33.9915 35.5315 33.4637 36.0571L29.7799 39.7302C29.5829 39.9265 29.3158 40.0367 29.0373 40.0367C28.7588 40.0367 28.4917 39.9265 28.2946 39.7302L26.9348 38.3732C26.7576 38.1962 26.5471 38.0558 26.3154 37.96C26.0837 37.8642 25.8354 37.8149 25.5846 37.8149C25.3339 37.8149 25.0855 37.8642 24.8539 37.96C24.6222 38.0558 24.4117 38.1962 24.2344 38.3732L20.9021 41.6985C20.705 41.8949 20.4379 42.0051 20.1595 42.0051C19.881 42.0051 19.6139 41.8949 19.4168 41.6985L18.0112 40.2959L30.0634 28.269C30.2525 28.0802 30.477 27.9304 30.7242 27.8282C30.9713 27.726 31.2362 27.6734 31.5037 27.6734C31.7712 27.6734 32.0361 27.726 32.2832 27.8282C32.5304 27.9304 32.7549 28.0802 32.944 28.269L44.503 39.8038L43.5906 40.7144C43.3935 40.9107 43.1264 41.0209 42.8479 41.0209C42.5695 41.0209 42.3024 40.9107 42.1053 40.7144L40.1859 38.799C40.0128 38.6263 39.7781 38.5293 39.5333 38.5293C39.2885 38.5293 39.0538 38.6263 38.8807 38.799C38.7076 38.9717 38.6104 39.206 38.6104 39.4502C38.6104 39.6945 38.7076 39.9287 38.8807 40.1014L40.8001 42.0168C41.3437 42.5579 42.0801 42.8617 42.8479 42.8617C43.6157 42.8617 44.3522 42.5579 44.8958 42.0168L45.8082 41.1063L59.4594 54.7288C59.6324 54.9015 59.8672 54.9985 60.112 54.9985C60.3567 54.9985 60.5915 54.9015 60.7645 54.7288C60.9376 54.5561 61.0349 54.3218 61.0349 54.0776C61.0349 53.8333 60.9376 53.5991 60.7645 53.4264L41.6874 34.3908L43.4592 32.6228C44.2111 31.8728 45.2308 31.4515 46.2939 31.4515C47.3571 31.4515 48.3768 31.8728 49.1287 32.6228L61.4245 44.8928C61.5102 44.9783 61.6119 45.0461 61.7239 45.0924C61.8359 45.1387 61.9559 45.1625 62.0771 45.1625C62.1983 45.1625 62.3183 45.1387 62.4303 45.0924C62.5423 45.0461 62.644 44.9783 62.7297 44.8928C62.8154 44.8072 62.8834 44.7057 62.9297 44.594C62.9761 44.4822 63 44.3625 63 44.2415C63 44.1206 62.9761 44.0008 62.9297 43.8891C62.8834 43.7774 62.8154 43.6758 62.7297 43.5903L62.7371 43.583ZM23.5494 11.8133V3.87489C23.5494 3.85809 23.556 3.84197 23.568 3.83009C23.5799 3.81821 23.596 3.81154 23.6128 3.81154H30.5816V11.8133H23.5494Z" fill="#400198"/>
</svg>
